<svg id="Line_ICONS" data-name="Line ICONS" xmlns="http://www.w3.org/2000/svg" viewBox="0 0 216 216"><defs><style>.cls-1{fill:#479fd8;}.cls-2{fill:#ccc;}.cls-3{fill:#16456a;}</style></defs><title>01_RMT_LA</title><path class="cls-1" d="M66.17,131.84a2,2,0,0,1-2-2v-70a2,2,0,0,1,2-2H84.69a2,2,0,0,1,2,2V93.23a2,2,0,1,1-4,0V61.87H68.17v68A2,2,0,0,1,66.17,131.84ZM98.63,83.89V40.25h14.52V78.69a2,2,0,0,0,4,0V38.25a2,2,0,0,0-2-2H96.63a2,2,0,0,0-2,2V83.89a2,2,0,0,0,4,0Zm-42.4,40.38V83.64a2,2,0,0,0-2-2H35.71a2,2,0,0,0-2,2v39.78a2,2,0,0,0,4,0V85.64H52.23v38.63a2,2,0,0,0,4,0Z"/><path class="cls-2" d="M25.32,112.89h-8V39.36A17.37,17.37,0,0,1,34.69,22H143.81v8H32.72a7.4,7.4,0,0,0-7.4,7.4ZM176.19,65.25H143v8h37.82ZM120.12,178.93,91.37,136.52a31.39,31.39,0,0,1,25.57-50v-8A39.39,39.39,0,0,0,84.8,141.09l29.83,44Z"/><path class="cls-3" d="M177,118.57a15.57,15.57,0,1,0,15.62,15.57A15.62,15.62,0,0,0,177,118.57Zm0,27.14a11.57,11.57,0,1,1,11.62-11.57A11.61,11.61,0,0,1,177,145.71Zm27.46-48.55-12.33-7.7-12-21.61a1.4,1.4,0,0,0-.1-.16,9.2,9.2,0,0,0-7.6-4h-26.6V21.79a2,2,0,0,0-2-2H32.63A17.18,17.18,0,0,0,15.46,37v75.94h4V37A13.18,13.18,0,0,1,32.63,23.79H141.78v62a40.85,40.85,0,0,0-66.6,31.74,41.22,41.22,0,0,0,1.47,10.93H59.05a15.62,15.62,0,0,0-29.09,0H17.46a2,2,0,0,0,0,4H29a14.88,14.88,0,0,0-.09,1.64,15.63,15.63,0,0,0,31.25,0A14.88,14.88,0,0,0,60,132.5H78a40.7,40.7,0,0,0,4.74,8.74l31.36,45.87a2,2,0,0,0,1.65.87h0a2,2,0,0,0,1.64-.85l32.54-46.71a41.08,41.08,0,0,0,4.17-7.92h2.52a2,2,0,0,0,0-4h-1.21a40.75,40.75,0,0,0-9.64-38.95V67.68h26.6a5.2,5.2,0,0,1,4.25,2.2l12.21,22a2.07,2.07,0,0,0,.69.72L201.36,100V128.5H197.1a2,2,0,0,0,0,4h6.26a2,2,0,0,0,2-2V98.85A2,2,0,0,0,204.42,97.16ZM44.5,145.71a11.57,11.57,0,1,1,11.63-11.57A11.61,11.61,0,0,1,44.5,145.71Zm102.14-7.55-30.87,44.3L86,139a36.86,36.86,0,1,1,60.62-.79Zm29.55-41.67H161.14a2,2,0,0,1,0-4h13.05v-1l-6.87-10.3A2,2,0,0,1,170.65,79l7.2,10.81a2,2,0,0,1,.34,1.1v3.61A2,2,0,0,1,176.19,96.49Zm-46.11,99.86c0,3.08-6.28,5.57-14,5.57s-14-2.49-14-5.57,6.28-5.57,14-5.57S130.08,193.27,130.08,196.35Zm-14-105.12a25.24,25.24,0,1,0,25.24,25.23A25.27,25.27,0,0,0,116.05,91.23Zm0,46.47a21.24,21.24,0,1,1,21.24-21.24A21.27,21.27,0,0,1,116.05,137.7Z"/></svg>