<svg xmlns="http://www.w3.org/2000/svg" viewBox="0 0 500 500"><path d="M54.25 129.53l-23.37-16.38 238.57-89.28 24.4 16-239.6 89.67zm197.5 342.08l-.2-236.04 218.54-83v-25.18L228 219.35l.22 260.23 23.53-7.97zM385.77 85.83L360.2 70.35l-240.6 91.18 26.22 15.23 239.95-90.93z" fill="#ccc"/><path d="M324.23 446.15c1.06 3.07-.57 6.42-3.64 7.48l-90.06 31.05c-.62.2-1.27.32-1.92.32-.98 0-1.95-.24-2.82-.72L25.06 374.42c-1.9-1.03-3.06-3-3.06-5.16v-92.3c0-.37.04-.74.1-1.1a5.7 5.7 0 0 1-.11-1.1V114.6c0-2.45 1.52-4.65 3.82-5.5l239.74-89.72c1.55-.58 3.26-.48 4.73.27L473.77 123.1c2.08 1.06 3.34 3.24 3.2 5.57a5.88 5.88 0 0 1-3.8 5.18L234.16 223.9v247.07l82.6-28.47a5.9 5.9 0 0 1 7.48 3.65zm132.32-318.6L358.12 77.5c-.42.3-.86.57-1.37.77l-223.5 84.7 96.14 50.17 227.15-85.6zM42.3 115.5l77 40.17 224.93-85.24-76.95-39.12L42.3 115.5zm-8.53 161.46v88.82L222.4 469V222.74l-95.7-49.93v76.33a5.88 5.88 0 1 1-11.76 0v-82.47l-81.16-42.35v150.45a5.78 5.78 0 0 1-.11 1.1c.05.34.1.7.1 1.08z" fill="#16456a"/><path d="M476 169.35l.14 221.1c0 2.47-1.53 4.67-3.85 5.52l-115.77 42.7a5.83 5.83 0 0 1-2.04.37 5.89 5.89 0 0 1-5.52-3.85 5.9 5.9 0 0 1 3.48-7.56l111.92-41.27-.14-217c0-3.25 2.63-5.9 5.88-5.9a5.89 5.89 0 0 1 5.9 5.89z" fill="#479fd8"/></svg>