<svg id="Line_ICONS" data-name="Line ICONS" xmlns="http://www.w3.org/2000/svg" viewBox="0 0 216 216"><defs><style>.cls-1{fill:#479fd8;}.cls-2{fill:#ccc;}.cls-3{fill:#16456a;}</style></defs><title>Icon</title><path class="cls-1" d="M131.62843,101.77263c-.87908,1.094-1.75592,2.19018-2.64624,3.26538a187.911,187.911,0,0,1,26.66254,12.26929,19.31689,19.31689,0,0,1,2.16339-3.35743A190.72345,190.72345,0,0,0,131.62843,101.77263Z"/><path class="cls-2" d="M129.67824,104.17912c-.23261.28516-.46185.57593-.696.85889q-2.38119,2.87512-4.81164,5.64477a186.76283,186.76283,0,0,1,29.47809,13.55762,19.24,19.24,0,0,1,2.4425-7.79907A193.56876,193.56876,0,0,0,129.67824,104.17912Z"/><path class="cls-2" d="M172.7549,144.5778a18.5877,18.5877,0,0,1-15.37061-28.97509l6.63379,4.47168A10.58284,10.58284,0,1,0,181.56935,131.904l6.63379,4.47168a18.46239,18.46239,0,0,1-11.85791,7.854A18.78257,18.78257,0,0,1,172.7549,144.5778Z"/><path class="cls-3" d="M87.20119,59.91765a21.2737,21.2737,0,1,1,5.53223-.73291A21.34307,21.34307,0,0,1,87.20119,59.91765Zm.0625-38.502a17.339,17.339,0,0,0-4.49072.59473,17.243,17.243,0,1,0,21.11816,12.19287h0a17.26485,17.26485,0,0,0-16.62744-12.7876Z"/><path class="cls-1" d="M36.89308,102.90446a15.79441,15.79441,0,1,1,4.10059-.54345A15.81842,15.81842,0,0,1,36.89308,102.90446ZM36.938,75.403a11.82036,11.82036,0,0,0-3.05908.40527A11.67556,11.67556,0,1,0,36.938,75.403Z"/><path class="cls-3" d="M55.79152,178.96745a21.27329,21.27329,0,1,1,5.53272-.73291A21.34354,21.34354,0,0,1,55.79152,178.96745Zm.0625-38.502a17.339,17.339,0,0,0-4.49072.59473A17.24307,17.24307,0,1,0,72.48146,153.2531h0A17.26481,17.26481,0,0,0,55.854,140.4655Z"/><path class="cls-3" d="M123.90041,191.34831a15.74766,15.74766,0,1,1,15.23388-19.82666h0a15.74441,15.74441,0,0,1-11.1333,19.28321A15.81877,15.81877,0,0,1,123.90041,191.34831Zm.023-27.49756a11.74556,11.74556,0,1,0,11.34765,8.70606A11.73618,11.73618,0,0,0,123.92336,163.85075Z"/><path class="cls-1" d="M172.75929,147.24089a21.24669,21.24669,0,1,1,20.55323-26.74951h0a21.27371,21.27371,0,0,1-20.55323,26.74951Zm.03028-38.49658a17.2441,17.2441,0,1,0,16.65967,12.78222A17.21032,17.21032,0,0,0,172.78957,108.74431Z"/><path class="cls-3" d="M154.68947,72.53728A15.746,15.746,0,1,1,169.89357,52.716h0a15.75142,15.75142,0,0,1-15.2041,19.82129Zm.01562-27.49659a11.74725,11.74725,0,1,0,3.02051,23.09473,11.74483,11.74483,0,0,0,8.30469-14.38428h0a11.75968,11.75968,0,0,0-11.3252-8.71045Z"/><path class="cls-2" d="M95.26149,56.1342A18.41986,18.41986,0,0,1,87.284,57.88982,195.34828,195.34828,0,0,0,90.0591,86.96819q4.25885.80016,8.4292,1.71777A188.20334,188.20334,0,0,1,95.26149,56.1342Z"/><path class="cls-1" d="M109.12892,98.551a2.0119,2.0119,0,0,1-.52246-.06934,276.8849,276.8849,0,0,0-46.79834-8.26074,2,2,0,1,1,.36328-3.9834,280.88612,280.88612,0,0,1,47.47705,8.38184,2.00037,2.00037,0,0,1-.51953,3.93164Z"/><path class="cls-2" d="M72.159,147.54265A191.28781,191.28781,0,0,0,95.52223,130.7011q-1.46631-4.077-2.77978-8.1399a184.04683,184.04683,0,0,1-26.32544,19.113A19.18563,19.18563,0,0,1,72.159,147.54265Z"/><path class="cls-3" d="M108.57375,151.36a2,2,0,0,1-1.82617-1.1831,276.679,276.679,0,0,1-16.19971-46.59668,2.0001,2.0001,0,1,1,3.88379-.958A272.66524,272.66524,0,0,0,110.398,148.54216a2.00113,2.00113,0,0,1-1.82422,2.81787Z"/><path class="cls-1" d="M121.34627,98.17009C93.11305,89.03,66.13258,86.26579,50.54408,85.45476a13.62993,13.62993,0,0,1-.08459,3.9956c15.06006.78174,40.91235,3.41016,68.10791,12.0083C119.49666,100.36882,120.42787,99.28288,121.34627,98.17009Z"/><path class="cls-2" d="M87.23879,57.24919l-.11914-.00049.0498-8,.06738.00049a10.58311,10.58311,0,0,0,.06494-21.166l.04981-8a18.58319,18.58319,0,0,1-.11279,37.166Z"/><path class="cls-2" d="M40.87062,168.74138A18.5847,18.5847,0,1,1,71.919,148.39323l-6.90137,4.0459a10.58484,10.58484,0,1,0-17.68994,11.57959Z"/><path class="cls-3" d="M87.20119,59.91765a21.2737,21.2737,0,1,1,5.53223-.73291A21.34307,21.34307,0,0,1,87.20119,59.91765Zm.0625-38.502a17.339,17.339,0,0,0-4.49072.59473,17.243,17.243,0,1,0,21.11816,12.19287h0a17.26485,17.26485,0,0,0-16.62744-12.7876Z"/><path class="cls-3" d="M55.79152,178.96745a21.27329,21.27329,0,1,1,5.53272-.73291A21.34354,21.34354,0,0,1,55.79152,178.96745Zm.0625-38.502a17.339,17.339,0,0,0-4.49072.59473A17.24307,17.24307,0,1,0,72.48146,153.2531h0A17.26481,17.26481,0,0,0,55.854,140.4655Z"/><path class="cls-3" d="M117.60957,163.39494A281.5276,281.5276,0,0,1,93.42568,98.09343c-1.413-.29443-2.83728-.57178-4.26587-.84546,6.57019,29.97876,18.27087,55.25415,25.17718,68.50952A13.63966,13.63966,0,0,1,117.60957,163.39494Z"/><path class="cls-3" d="M88.33522,57.87932a19.074,19.074,0,0,1-3.999-.19654,192.28185,192.28185,0,0,0,2.72217,28.729c1.40063.2478,2.78784.51489,4.17651.78174A189.522,189.522,0,0,1,88.33522,57.87932Z"/><path class="cls-3" d="M150.29964,69.81413a13.80507,13.80507,0,0,1-3.57184-1.81787,281.01567,281.01567,0,0,1-43.34131,54.06055c.4646,1.37768.9364,2.75635,1.42651,4.13672C126.6667,105.59514,142.1852,82.99187,150.29964,69.81413Z"/><path class="cls-3" d="M96.58913,133.58464c-.49622-1.3352-.99292-2.66992-1.4668-4.00537a188.40328,188.40328,0,0,1-23.377,17.35327A19.09118,19.09118,0,0,1,73.63,150.45476,190.97233,190.97233,0,0,0,96.58913,133.58464Z"/></svg>