<?xml version="1.0" standalone="no"?>
<!DOCTYPE svg PUBLIC "-//W3C//DTD SVG 20010904//EN"
 "http://www.w3.org/TR/2001/REC-SVG-20010904/DTD/svg10.dtd">
<svg version="1.0" xmlns="http://www.w3.org/2000/svg"
 width="700.000000pt" height="700.000000pt" viewBox="0 0 700.000000 700.000000"
 preserveAspectRatio="xMidYMid meet">
<metadata>
Created by potrace 1.14, written by Peter Selinger 2001-2017
</metadata>
<g transform="translate(0.000000,700.000000) scale(0.100000,-0.100000)"
fill="#000000" stroke="none">
<path d="M3280 6994 c-19 -2 -84 -9 -145 -14 -578 -56 -1180 -283 -1660 -625
-237 -169 -531 -446 -709 -670 -416 -521 -673 -1147 -748 -1820 -17 -155 -17
-575 0 -730 52 -469 198 -931 418 -1327 290 -523 731 -983 1239 -1294 439
-269 920 -432 1460 -496 145 -17 576 -17 730 0 822 91 1556 447 2131 1034 203
206 348 390 487 618 274 449 433 916 499 1465 16 136 16 592 0 730 -86 725
-352 1347 -803 1885 -122 145 -351 370 -494 484 -510 407 -1117 661 -1775 742
-117 15 -553 27 -630 18z m746 -456 c76 -102 136 -253 154 -388 13 -99 13
-494 0 -656 -82 -1042 -524 -2123 -1280 -3129 l-111 -147 -24 -167 c-33 -232
-47 -501 -36 -681 5 -80 14 -158 19 -175 58 -183 168 -253 332 -211 126 33
265 129 445 310 336 338 687 801 1280 1694 82 122 151 222 155 222 14 0 110
-385 110 -442 0 -116 -80 -272 -328 -638 -396 -584 -837 -1115 -1132 -1362
-110 -93 -274 -205 -369 -252 -90 -46 -221 -91 -308 -106 -87 -16 -263 -8
-348 15 -238 63 -434 245 -547 506 -89 207 -112 368 -105 738 6 328 9 346 171
1126 111 532 127 598 256 1040 151 518 386 1110 635 1600 256 504 541 911 759
1084 57 45 138 76 208 80 9 1 37 -26 64 -61z"/>
<path d="M3432 5182 c-203 -525 -375 -1176 -481 -1822 -17 -102 -33 -196 -35
-210 -4 -22 -3 -23 8 -7 7 9 54 93 105 185 259 477 407 933 452 1392 11 121 6
373 -10 495 l-6 50 -33 -83z"/>
</g>
</svg>
